{
  "accessors": [
    {
      "bufferView": 1,
      "componentType": 5126,
      "count": 65532,
      "max": [
        0.99225997924804688,
        0.99225997924804688,
        0.62542998790740967
      ],
      "min": [
        -0.99225997924804688,
        -0.99225997924804688,
        -0.62542998790740967
      ],
      "type": "VEC3"
    },
    {
      "bufferView": 1,
      "byteOffset": 786384,
      "componentType": 5126,
      "count": 65532,
      "max": [
        1,
        1,
        0.99999898672103882
      ],
      "min": [
        -1,
        -1,
        -0.99999898672103882
      ],
      "type": "VEC3"
    },
    {
      "bufferView": 0,
      "componentType": 5125,
      "count": 393087,
      "max": [
        65531
      ],
      "min": [
        0
      ],
      "type": "SCALAR"
    },
    {
      "bufferView": 1,
      "byteOffset": 1572768,
      "componentType": 5126,
      "count": 65532,
      "max": [
        0.21366000175476074,
        0.16077999770641327,
        0.18588000535964966
      ],
      "min": [
        -0.21312999725341797,
        -0.16077999770641327,
        -0.18927000463008881
      ],
      "type": "VEC3"
    },
    {
      "bufferView": 1,
      "byteOffset": 2359152,
      "componentType": 5126,
      "count": 65532,
      "max": [
        0.99987250566482544,
        0.99992573261260986,
        0.9998658299446106
      ],
      "min": [
        -0.99987250566482544,
        -0.99992573261260986,
        -0.9998658299446106
      ],
      "type": "VEC3"
    },
    {
      "bufferView": 0,
      "byteOffset": 1572348,
      "componentType": 5125,
      "count": 392727,
      "max": [
        65531
      ],
      "min": [
        0
      ],
      "type": "SCALAR"
    },
    {
      "bufferView": 1,
      "byteOffset": 3145536,
      "componentType": 5126,
      "count": 34977,
      "max": [
        0.04284999892115593,
        0.024539999663829803,
        0.041540000587701797
      ],
      "min": [
        -0.042819999158382416,
        -0.024539999663829803,
        -0.041540000587701797
      ],
      "type": "VEC3"
    },
    {
      "bufferView": 1,
      "byteOffset": 3565260,
      "componentType": 5126,
      "count": 34977,
      "max": [
        0.99985224008560181,
        0.99979144334793091,
        0.99995273351669312
      ],
      "min": [
        -0.99985224008560181,
        -0.99979144334793091,
        -0.99995273351669312
      ],
      "type": "VEC3"
    },
    {
      "bufferView": 0,
      "byteOffset": 3143256,
      "componentType": 5125,
      "count": 209514,
      "max": [
        34976
      ],
      "min": [
        0
      ],
      "type": "SCALAR"
    }
  ],
  "asset": {
    "extras": {
      "author": "koelooptiemanna (https://sketchfab.com/koelooptiemanna)",
      "license": "CC-BY-4.0 (http://creativecommons.org/licenses/by/4.0/)",
      "source": "https://sketchfab.com/3d-models/ktx-swirl-1-18c7b9e7ddc9407eb58c13de422dbbe9",
      "title": "KTX Swirl 1"
    },
    "generator": "Sketchfab-6.29.0",
    "version": "2.0"
  },
  "bufferViews": [
    {
      "buffer": 0,
      "byteLength": 3981312,
      "byteOffset": 0,
      "name": "floatBufferViews",
      "target": 34963
    },
    {
      "buffer": 0,
      "byteLength": 3984984,
      "byteOffset": 3981312,
      "byteStride": 12,
      "name": "floatBufferViews",
      "target": 34962
    }
  ],
  "buffers": [
    {
      "byteLength": 7966296,
      "uri": "scene.bin"
    }
  ],
  "materials": [
    {
      "doubleSided": true,
      "name": "Scene_-_Root",
      "pbrMetallicRoughness": {
        "baseColorFactor": [
          1,
          1,
          1,
          1
        ],
        "metallicFactor": 0,
        "roughnessFactor": 0.59999999999999998
      }
    }
  ],
  "meshes": [
    {
      "name": "Swirl_0",
      "primitives": [
        {
          "attributes": {
            "NORMAL": 1,
            "POSITION": 0
          },
          "indices": 2,
          "material": 0,
          "mode": 4
        }
      ]
    },
    {
      "name": "Swirl_0",
      "primitives": [
        {
          "attributes": {
            "NORMAL": 4,
            "POSITION": 3
          },
          "indices": 5,
          "material": 0,
          "mode": 4
        }
      ]
    },
    {
      "name": "Swirl_0",
      "primitives": [
        {
          "attributes": {
            "NORMAL": 7,
            "POSITION": 6
          },
          "indices": 8,
          "material": 0,
          "mode": 4
        }
      ]
    }
  ],
  "nodes": [
    {
      "children": [
        1
      ],
      "name": "RootNode (gltf orientation matrix)",
      "rotation": [
        -0.70710678118654746,
        -0,
        -0,
        0.70710678118654757
      ]
    },
    {
      "children": [
        2
      ],
      "name": "RootNode (model correction matrix)"
    },
    {
      "children": [
        3
      ],
      "name": "Root"
    },
    {
      "children": [
        4,
        5,
        6
      ],
      "name": "Swirl"
    },
    {
      "mesh": 0,
      "name": "Swirl_0"
    },
    {
      "mesh": 1,
      "name": "Swirl_0"
    },
    {
      "mesh": 2,
      "name": "Swirl_0"
    }
  ],
  "scene": 0,
  "scenes": [
    {
      "name": "OSG_Scene",
      "nodes": [
        0
      ]
    }
  ]
}

